<?xml version="1.0" encoding="utf-8" ?>
<svg baseProfile="full" height="900" version="1.1" viewBox="0 0 1600 900" width="1600" xmlns="http://www.w3.org/2000/svg" xmlns:ev="http://www.w3.org/2001/xml-events" xmlns:xlink="http://www.w3.org/1999/xlink"><defs /><rect fill="#F4E8DB" height="900" width="1600" x="0" y="0" /><text fill="#252422" font-family="DejaVu Sans Mono, Noto Sans Mono, monospace" font-size="42" font-weight="bold" opacity="1.0" text-anchor="start" x="70" y="82">LOCAL-FIRST ARCHITECTURE</text><rect fill="#F8EFE5" height="250" rx="20" ry="20" stroke="#CEB9A6" stroke-width="1.5" width="330" x="70" y="270" /><line stroke="#E8D7C6" stroke-width="1.5" x1="70" x2="400" y1="330" y2="330" /><circle cx="100" cy="300" fill="#D9612F" r="6" stroke="#62594F" stroke-width="0.5" /><circle cx="122" cy="300" fill="#C87832" r="6" stroke="#62594F" stroke-width="0.5" /><circle cx="144" cy="300" fill="#A74726" r="6" stroke="#62594F" stroke-width="0.5" /><text fill="#252422" font-family="DejaVu Sans Mono, Noto Sans Mono, monospace" font-size="30" font-weight="normal" opacity="1.0" text-anchor="start" x="105" y="390">&gt;_</text><text fill="#252422" font-family="DejaVu Sans Mono, Noto Sans Mono, monospace" font-size="24" font-weight="bold" opacity="1.0" text-anchor="middle" x="235" y="465">your coding agent</text><text fill="#9B887A" font-family="DejaVu Sans Mono, Noto Sans Mono, monospace" font-size="20" font-weight="normal" opacity="1.0" text-anchor="middle" x="500" y="362">MCP · stdio</text><line stroke="#62594F" stroke-linecap="round" stroke-width="2.2" x1="410" x2="575" y1="395" y2="395" /><polygon fill="#62594F" points="575,395 564.0237369684738,401.965748334727 564.0237369684738,388.034251665273" /><rect fill="#F8EFE5" height="210" rx="18" ry="18" stroke="#CEB9A6" stroke-width="1.5" width="300" x="585" y="290" /><text fill="#252422" font-family="DejaVu Sans Mono, Noto Sans Mono, monospace" font-size="35" font-weight="bold" opacity="1.0" text-anchor="middle" x="735" y="382">nmemory</text><text fill="#9B887A" font-family="DejaVu Sans Mono, Noto Sans Mono, monospace" font-size="18" font-weight="normal" opacity="1.0" text-anchor="middle" x="735" y="445">single Rust binary · 20 tools</text><line stroke="#62594F" stroke-linecap="round" stroke-width="2.2" x1="895" x2="1020" y1="395" y2="395" /><polygon fill="#62594F" points="1020,395 1009.0237369684738,401.965748334727 1009.0237369684738,388.034251665273" /><path d="M1040,280 H1210.2 L1270,339.8 V530 H1040 Z" fill="none" stroke="#62594F" stroke-width="3" /><line stroke="#62594F" stroke-width="3" x1="1210.2" x2="1210.2" y1="280" y2="339.8" /><line stroke="#62594F" stroke-width="3" x1="1210.2" x2="1270" y1="339.8" y2="339.8" /><text fill="#252422" font-family="DejaVu Sans Mono, Noto Sans Mono, monospace" font-size="24" font-weight="bold" opacity="1.0" text-anchor="middle" x="1155" y="392">memory.sqlite3</text><text fill="#9B887A" font-family="DejaVu Sans Mono, Noto Sans Mono, monospace" font-size="18" font-weight="normal" opacity="1.0" text-anchor="middle" x="1155" y="565">one file, on your disk</text><path d="M585,240 V210 Q585,190 605,190 H1250 Q1270,190 1270,210 V240" fill="none" stroke="#A74726" stroke-width="2.5" /><text fill="#A74726" font-family="DejaVu Sans Mono, Noto Sans Mono, monospace" font-size="24" font-weight="bold" opacity="1.0" text-anchor="middle" x="928" y="164">runs entirely on your machine</text><line stroke="#E8D7C6" stroke-width="1.5" x1="1325" x2="1325" y1="210" y2="650" /><circle cx="1424.5" cy="304.25" fill="none" r="20.4" stroke="#62594F" stroke-width="2.55" /><circle cx="1450" cy="291.5" fill="none" r="28.9" stroke="#62594F" stroke-width="2.55" /><circle cx="1480.6" cy="305.95" fill="none" r="18.7" stroke="#62594F" stroke-width="2.55" /><line stroke="#62594F" stroke-width="2.55" x1="1407.5" x2="1497.6" y1="322.95" y2="322.95" /><line stroke="#D9612F" stroke-linecap="round" stroke-width="3.4" x1="1403.25" x2="1496.75" y1="253.25" y2="346.75" /><line stroke="#D9612F" stroke-linecap="round" stroke-width="3.4" x1="1496.75" x2="1403.25" y1="253.25" y2="346.75" /><rect fill="none" height="31.5" rx="3.75" ry="3.75" stroke="#62594F" stroke-width="2.25" width="28.5" x="1435.75" y="465.0" /><line stroke="#62594F" stroke-width="2.25" x1="1443.25" x2="1443.25" y1="452.25" y2="465.0" /><line stroke="#62594F" stroke-width="2.25" x1="1456.75" x2="1456.75" y1="452.25" y2="465.0" /><line stroke="#62594F" stroke-width="2.25" x1="1450" x2="1450" y1="496.5" y2="523.5" /><line stroke="#D9612F" stroke-linecap="round" stroke-width="3.0" x1="1411.0" x2="1489.0" y1="441.0" y2="519.0" /><line stroke="#D9612F" stroke-linecap="round" stroke-width="3.0" x1="1489.0" x2="1411.0" y1="441.0" y2="519.0" /><text fill="#9B887A" font-family="DejaVu Sans Mono, Noto Sans Mono, monospace" font-size="16" font-weight="normal" opacity="1.0" text-anchor="middle" x="1450" y="600.0">no sockets · no telemetry</text><text fill="#9B887A" font-family="DejaVu Sans Mono, Noto Sans Mono, monospace" font-size="16" font-weight="normal" opacity="1.0" text-anchor="middle" x="1450" y="621.6">no embedder · nothing</text><text fill="#9B887A" font-family="DejaVu Sans Mono, Noto Sans Mono, monospace" font-size="16" font-weight="normal" opacity="1.0" text-anchor="middle" x="1450" y="643.2">phones home</text><line stroke="#E8D7C6" stroke-width="1.3" x1="70" x2="1530" y1="760" y2="760" /><text fill="#9B887A" font-family="DejaVu Sans Mono, Noto Sans Mono, monospace" font-size="21" font-weight="normal" opacity="1.0" text-anchor="middle" x="800" y="820">compiled without a networking stack — verify: strace shows zero socket() calls</text></svg>