<?xml version="1.0" encoding="utf-8" ?>
<svg baseProfile="full" height="640" version="1.1" viewBox="0 0 1280 640" width="1280" xmlns="http://www.w3.org/2000/svg" xmlns:ev="http://www.w3.org/2001/xml-events" xmlns:xlink="http://www.w3.org/1999/xlink"><defs /><rect fill="#F5F1E9" height="640" width="1280" x="0" y="0" /><line stroke="#4A4640" stroke-opacity="0.028" stroke-width="1" x1="0" x2="0" y1="0" y2="640" /><line stroke="#4A4640" stroke-opacity="0.028" stroke-width="1" x1="48" x2="48" y1="0" y2="640" /><line stroke="#4A4640" stroke-opacity="0.028" stroke-width="1" x1="96" x2="96" y1="0" y2="640" /><line stroke="#4A4640" stroke-opacity="0.028" stroke-width="1" x1="144" x2="144" y1="0" y2="640" /><line stroke="#4A4640" stroke-opacity="0.028" stroke-width="1" x1="192" x2="192" y1="0" y2="640" /><line stroke="#4A4640" stroke-opacity="0.028" stroke-width="1" x1="240" x2="240" y1="0" y2="640" /><line stroke="#4A4640" stroke-opacity="0.028" stroke-width="1" x1="288" x2="288" y1="0" y2="640" /><line stroke="#4A4640" stroke-opacity="0.028" stroke-width="1" x1="336" x2="336" y1="0" y2="640" /><line stroke="#4A4640" stroke-opacity="0.028" stroke-width="1" x1="384" x2="384" y1="0" y2="640" /><line stroke="#4A4640" stroke-opacity="0.028" stroke-width="1" x1="432" x2="432" y1="0" y2="640" /><line stroke="#4A4640" stroke-opacity="0.028" stroke-width="1" x1="480" x2="480" y1="0" y2="640" /><line stroke="#4A4640" stroke-opacity="0.028" stroke-width="1" x1="528" x2="528" y1="0" y2="640" /><line stroke="#4A4640" stroke-opacity="0.028" stroke-width="1" x1="576" x2="576" y1="0" y2="640" /><line stroke="#4A4640" stroke-opacity="0.028" stroke-width="1" x1="624" x2="624" y1="0" y2="640" /><line stroke="#4A4640" stroke-opacity="0.028" stroke-width="1" x1="672" x2="672" y1="0" y2="640" /><line stroke="#4A4640" stroke-opacity="0.028" stroke-width="1" x1="720" x2="720" y1="0" y2="640" /><line stroke="#4A4640" stroke-opacity="0.028" stroke-width="1" x1="768" x2="768" y1="0" y2="640" /><line stroke="#4A4640" stroke-opacity="0.028" stroke-width="1" x1="816" x2="816" y1="0" y2="640" /><line stroke="#4A4640" stroke-opacity="0.028" stroke-width="1" x1="864" x2="864" y1="0" y2="640" /><line stroke="#4A4640" stroke-opacity="0.028" stroke-width="1" x1="912" x2="912" y1="0" y2="640" /><line stroke="#4A4640" stroke-opacity="0.028" stroke-width="1" x1="960" x2="960" y1="0" y2="640" /><line stroke="#4A4640" stroke-opacity="0.028" stroke-width="1" x1="1008" x2="1008" y1="0" y2="640" /><line stroke="#4A4640" stroke-opacity="0.028" stroke-width="1" x1="1056" x2="1056" y1="0" y2="640" /><line stroke="#4A4640" stroke-opacity="0.028" stroke-width="1" x1="1104" x2="1104" y1="0" y2="640" /><line stroke="#4A4640" stroke-opacity="0.028" stroke-width="1" x1="1152" x2="1152" y1="0" y2="640" /><line stroke="#4A4640" stroke-opacity="0.028" stroke-width="1" x1="1200" x2="1200" y1="0" y2="640" /><line stroke="#4A4640" stroke-opacity="0.028" stroke-width="1" x1="1248" x2="1248" y1="0" y2="640" /><line stroke="#4A4640" stroke-opacity="0.028" stroke-width="1" x1="0" x2="1280" y1="0" y2="0" /><line stroke="#4A4640" stroke-opacity="0.028" stroke-width="1" x1="0" x2="1280" y1="48" y2="48" /><line stroke="#4A4640" stroke-opacity="0.028" stroke-width="1" x1="0" x2="1280" y1="96" y2="96" /><line stroke="#4A4640" stroke-opacity="0.028" stroke-width="1" x1="0" x2="1280" y1="144" y2="144" /><line stroke="#4A4640" stroke-opacity="0.028" stroke-width="1" x1="0" x2="1280" y1="192" y2="192" /><line stroke="#4A4640" stroke-opacity="0.028" stroke-width="1" x1="0" x2="1280" y1="240" y2="240" /><line stroke="#4A4640" stroke-opacity="0.028" stroke-width="1" x1="0" x2="1280" y1="288" y2="288" /><line stroke="#4A4640" stroke-opacity="0.028" stroke-width="1" x1="0" x2="1280" y1="336" y2="336" /><line stroke="#4A4640" stroke-opacity="0.028" stroke-width="1" x1="0" x2="1280" y1="384" y2="384" /><line stroke="#4A4640" stroke-opacity="0.028" stroke-width="1" x1="0" x2="1280" y1="432" y2="432" /><line stroke="#4A4640" stroke-opacity="0.028" stroke-width="1" x1="0" x2="1280" y1="480" y2="480" /><line stroke="#4A4640" stroke-opacity="0.028" stroke-width="1" x1="0" x2="1280" y1="528" y2="528" /><line stroke="#4A4640" stroke-opacity="0.028" stroke-width="1" x1="0" x2="1280" y1="576" y2="576" /><line stroke="#4A4640" stroke-opacity="0.028" stroke-width="1" x1="0" x2="1280" y1="624" y2="624" /><rect fill="none" height="64" rx="32.0" ry="32.0" stroke="#36332F" stroke-width="5" width="116" x="72.0" y="82.0" /><line stroke="#698664" stroke-linecap="round" stroke-width="3.9000000000000004" x1="101.0" x2="160.16" y1="114" y2="114" /><text fill="#698664" font-family="DejaVu Sans Mono, Noto Sans Mono, monospace" font-size="25.6" font-weight="bold" opacity="1.0" text-anchor="end" x="70.0" y="157.0">n</text><text fill="#698664" font-family="DejaVu Sans Mono, Noto Sans Mono, monospace" font-size="41.28" font-weight="bold" opacity="1.0" text-anchor="start" x="84" y="265.48">n</text><text fill="#36332F" font-family="DejaVu Sans Mono, Noto Sans Mono, monospace" font-size="86" font-weight="bold" letter-spacing="4.3" opacity="1.0" text-anchor="start" x="117.7808" y="250">MEMORY</text><text fill="#36332F" font-family="DejaVu Sans Mono, Noto Sans Mono, monospace" font-size="27" font-weight="normal" opacity="1.0" text-anchor="start" x="86" y="340.0">Hermetic, local memory for coding</text><text fill="#36332F" font-family="DejaVu Sans Mono, Noto Sans Mono, monospace" font-size="27" font-weight="normal" opacity="1.0" text-anchor="start" x="86" y="376.45">agents.</text><text fill="#8E8982" font-family="DejaVu Sans Mono, Noto Sans Mono, monospace" font-size="21" font-weight="normal" opacity="1.0" text-anchor="start" x="86" y="425">grounded, or it abstains</text><rect fill="#36332F" height="338" opacity="0.055" rx="24" ry="24" width="490" x="710" y="99" /><rect fill="#FAF7F1" height="338" rx="24" ry="24" stroke="#BBB3A8" stroke-width="1.5" width="490" x="710" y="92" /><line stroke="#D7D0C6" stroke-width="1.5" x1="710" x2="1200" y1="158" y2="158" /><circle cx="744" cy="126" fill="#E45A43" r="7" stroke="#4A4640" stroke-width="0.5" /><circle cx="769" cy="126" fill="#C88B32" r="7" stroke="#4A4640" stroke-width="0.5" /><circle cx="794" cy="126" fill="#698664" r="7" stroke="#4A4640" stroke-width="0.5" /><text fill="#36332F" font-family="DejaVu Sans Mono, Noto Sans Mono, monospace" font-size="23" font-weight="normal" opacity="1.0" text-anchor="start" x="752" y="235">$ retrieve deploy-checklist</text><text fill="#698664" font-family="DejaVu Sans Mono, Noto Sans Mono, monospace" font-size="22" font-weight="bold" opacity="1.0" text-anchor="start" x="752" y="300">→ grounded · 3 capsules ·</text><text fill="#698664" font-family="DejaVu Sans Mono, Noto Sans Mono, monospace" font-size="22" font-weight="bold" opacity="1.0" text-anchor="start" x="752" y="337">  provenance attached</text><line stroke="#D7D0C6" stroke-width="1.2" x1="84" x2="1196" y1="525" y2="525" /><text fill="#8E8982" font-family="DejaVu Sans Mono, Noto Sans Mono, monospace" font-size="19" font-weight="normal" opacity="1.0" text-anchor="start" x="84" y="573">Rust · single SQLite file · zero network sockets · AGPL-3.0</text></svg>